<svg xmlns="http://www.w3.org/2000/svg" width="1647" height="535" viewBox="0 0 1647 535" fill="none"><path d="M0.5 160.5C44.8333 120.667 139.4 72.8 163 200C192.5 359 185.5 465 301 482C416.5 499 534.5 398.5 496.5 338C458.5 277.5 408.5 302.5 434 338C459.5 373.5 488 359.5 531 315.5C574 271.5 651.5 259 704.5 298.5C757.5 338 743.5 529.5 934 533.5C1124.5 537.5 1231 325 1144.5 249C1058 173 1005 259 1028.5 298.5C1052 338 1139.5 443 1249 356.5C1358.5 270 1257.5 161.5 1384.5 89C1511.5 16.5 1650.5 158 1645.5 0.5" stroke="black" stroke-dasharray="10 10"></path></svg>